<svg width="150" height="150" viewBox="0 0 150 150" fill="none" xmlns="http://www.w3.org/2000/svg">
<path d="M127.756 49.6318C126.244 60.2999 116.972 68.9115 102.826 73.7613C92.9123 77.6616 70.1385 87.8374 57.3191 102M83.4307 81.1257C84.743 66.6308 21 78.5809 21 49.2233C21 30.9867 51.3084 22.6044 76.2018 28.7427C101.095 34.8809 104.973 54.2645 88.3889 56.9129C71.8051 59.5614 39.3885 34.7131 57.3191 70.2403M49.1795 26.5634C44.4053 14.0843 83.4307 14.0843 100.721 19.2633C118.011 24.4424 129.871 34.2953 127.756 49.2233" stroke="black" stroke-width="8" stroke-linecap="round" stroke-linejoin="round"/>
<path d="M25 60C29.4256 66.597 31.6384 75.1438 31.6384 85.6405C31.6384 112.349 50.7626 134 74.3536 134C97.9446 134 117.069 112.349 117.069 85.6405C117.069 75.1438 119.046 66.597 123 60" stroke="black" stroke-width="8" stroke-linecap="round" stroke-linejoin="round"/>
<path d="M98.4096 46C99.9593 52.8773 98.3323 65.7526 95 77" stroke="black" stroke-width="8"/>
</svg>
